# xmcd
#
# Track frame offsets: 
#        150
#        20375
#        42847
#        63197
#        83142
#        107362
#        124542
#        146680
#
# Disc length: 2281 seconds
#
# Revision: 11
# Processed by: cddbd v1.5.2PL0 Copyright (c) Steve Scherf et al.
# Submitted via: ExactAudioCopy v0.99pb5
#
DISCID=5b08e708
DTITLE=The Alan Parsons Project - Vulture Culture
DYEAR=1984
DGENRE=Rock
TTITLE0=Let's Talk About Me
TTITLE1=Separate Lives
TTITLE2=Days are Numbers (The Traveller)
TTITLE3=Sooner or Later
TTITLE4=Vulture Culture
TTITLE5=Hawkeye
TTITLE6=Somebody Out There
TTITLE7=The Same Old Sun
EXTD=YEAR: 1985
EXTT0=
EXTT1=
EXTT2=
EXTT3=
EXTT4=
EXTT5=
EXTT6=
EXTT7=
PLAYORDER=
